<svg id="Capa_1" enable-background="new 0 0 512 512" height="512" viewBox="0 0 512 512" width="512" xmlns="http://www.w3.org/2000/svg"><g><path d="m476 232.505h-325v-10.894l322.388-117.34c7.785-2.833 11.799-11.441 8.966-19.226l-27.362-75.175c-1.361-3.738-4.151-6.783-7.757-8.464-3.605-1.681-7.733-1.862-11.469-.5l-304.892 110.97c-.002.001-.004.001-.005.002l-100 36.397c-5.925 2.157-9.869 7.789-9.869 14.095v334.63c0 8.284 6.716 15 15 15h440c8.284 0 15-6.716 15-15v-249.495c0-8.284-6.716-15-15-15zm-147.239 80 62.5-50h41.978l-62.5 50zm-90 0 62.5-50h41.978l-62.5 50zm-87.761 0v-1.791l60.261-48.209h41.978l-62.5 50zm26.968-185.845 75.833 25.609-39.445 14.357-63.356-21.395v-8.755zm84.573-30.781 75.833 25.609-39.446 14.357-75.833-25.609zm84.572-30.782 75.833 25.608-39.445 14.357-75.833-25.609zm113.887 213.617v33.791h-42.239zm-297.761-16.209-12.239 9.791v-9.791zm-12.239-85.61 18.23 6.156-18.23 6.635zm292.488-110.916-51.248-17.307 39.692-14.446zm-392.488 106.894 70-25.478v8.244.003 156.863h-70zm410 309.127h-410v-139.495h145.001.009.012 89.979.009.012 89.979.009.012 84.978z"/><circle cx="86" cy="275" r="15"/><circle cx="86" cy="200" r="15"/></g></svg>