<svg id="Capa_1" enable-background="new 0 0 511.998 511.998" height="512" viewBox="0 0 511.998 511.998" width="512" xmlns="http://www.w3.org/2000/svg"><g><path d="m496.994 280.999h-9.809l-20.02-50.525c-2.266-5.719-7.794-9.475-13.945-9.475h-35.415l10.815-32.445 72.012-18.003c8.037-2.009 12.923-10.153 10.914-18.19-2.01-8.038-10.152-12.925-18.19-10.914l-80 20c-4.975 1.244-8.97 4.943-10.592 9.809l-16.581 49.743h-48.546l2.357-20.031c1.456-12.374-1.456-24.798-8.069-35.164 2.146-6.474 3.256-13.101 3.256-19.805 0-16.394-6.148-32.023-17.312-44.008-6.644-7.132-14.716-12.611-23.615-16.143.614-3.252.927-6.549.927-9.849 0-30.327-24.673-55-55-55-6.895 0-13.604 1.294-19.912 3.804-12.187-14.81-30.544-23.804-50.089-23.804-14.778 0-28.708 4.93-40 13.884-11.292-8.954-25.223-13.884-40-13.884-35.841 0-65 29.159-65 65 0 9.7 2.225 19.215 6.422 27.897-16.287 12.053-26.422 31.313-26.422 52.103 0 6.704 1.11 13.331 3.256 19.805-6.614 10.366-9.525 22.79-8.07 35.164l30.76 261.458c3.258 27.691 26.741 48.573 54.624 48.573h168.86c19.272 0 36.438-9.98 46.281-25.286l1.178 11.778c.767 7.668 7.22 13.507 14.926 13.507h140c7.706 0 14.159-5.839 14.926-13.507l6.994-69.943c.001-.011.002-.023.003-.034l5.997-59.966c.001-.011.002-.023.003-.034l5.652-56.516h6.425c8.284 0 15-6.716 15-15s-6.716-14.999-15.001-14.999zm-166.035-30h65.939c.033 0 .065.004.098.004s.066-.004.099-.004h45.934l11.887 30h-135.844zm-245.209 230c-12.674 0-23.348-9.492-24.829-22.079l-30.76-261.458c-.782-6.642 1.173-13.055 5.495-18.123.604-.546 1.156-1.133 1.656-1.759 4.417-4.254 10.162-6.582 16.382-6.582 12.528 0 22.918 9.797 23.654 22.304l.267 4.536v.009l16.656 283.152zm69.43 0h-30.856l-16.76-284.923c-.385-6.579 1.893-12.843 6.415-17.638 4.523-4.797 10.646-7.439 17.24-7.439h.267c13.065 0 23.695 10.629 23.695 23.695v286.305zm-23.695-340h-.267c-14.586 0-28.689 6.036-38.773 16.562-9.804-10.223-23.585-16.562-38.751-16.562-6.36 0-12.594 1.147-18.446 3.29.695-13.829 9.732-26.152 22.964-31.001 4.669-1.711 8.187-5.625 9.392-10.449s-.059-9.933-3.375-13.638c-4.128-4.612-9.048-12.382-9.048-23.202 0-19.299 15.701-35 35-35 11.039 0 21.233 5.188 27.969 14.234 2.831 3.801 7.292 6.041 12.031 6.041 4.74 0 9.2-2.24 12.031-6.042 6.736-9.045 16.93-14.233 27.969-14.233 13.42 0 25.817 7.944 31.584 20.239 1.951 4.16 5.701 7.195 10.175 8.239 4.474 1.042 9.179-.021 12.769-2.89 3.191-2.549 8.465-5.588 15.472-5.588 13.785 0 25 11.215 25 25 0 4.394-1.229 8.675-3.651 12.724-2.656 4.44-2.837 9.936-.479 14.541 2.359 4.604 6.924 7.669 12.08 8.107 17.699 1.505 31.182 15.52 32.009 32.928-5.86-2.149-12.104-3.3-18.474-3.3-15.167 0-28.947 6.339-38.751 16.563-10.084-10.527-24.187-16.563-38.773-16.563h-.267c-15.191 0-28.918 6.351-38.695 16.526-9.777-10.175-23.504-16.526-38.695-16.526zm101.311 55.086-14.95 254.15-1.81 30.763h-30.856v-286.304c0-13.065 10.629-23.695 23.695-23.695h.267c6.594 0 12.716 2.642 17.24 7.439s6.801 11.065 6.414 17.647zm77.402 1.378-4.098 34.835-19.297 48.701h-9.809c-8.284 0-15 6.716-15 15s6.716 15 15 15h6.425l6.167 61.669-10.148 86.252c-1.48 12.587-12.154 22.079-24.829 22.079h-8.521l3.53-60.004 13.394-227.693c.736-12.507 11.126-22.304 23.654-22.304 6.219 0 11.964 2.328 16.381 6.581.5.627 1.053 1.215 1.658 1.761 4.321 5.069 6.275 11.481 5.493 18.123zm133.222 283.536h-112.851l-4-40h120.851zm7-70h-126.851l-3-30h132.851zm6-60h-138.851l-4-40h146.851z"/></g></svg>