<svg xmlns="http://www.w3.org/2000/svg" width="24.393" height="24.393" viewBox="0 0 24.393 24.393"><defs><style>.a{fill:#ababab;}</style></defs><g transform="translate(6.066 6.066)"><path class="a" d="M85.654,77.007A6.151,6.151,0,0,0,81.331,75.2a6.018,6.018,0,0,0-4.324,1.807,6.131,6.131,0,0,0,4.324,10.454,6.018,6.018,0,0,0,4.324-1.807,6.151,6.151,0,0,0,1.807-4.324A6.018,6.018,0,0,0,85.654,77.007Zm-1.162,7.486a4.519,4.519,0,1,1,1.291-3.162A4.463,4.463,0,0,1,84.493,84.493Z" transform="translate(-75.2 -75.2)"/></g><g transform="translate(20.231 11.358)"><path class="a" d="M254.123,140.8h-2.484a.839.839,0,1,0,0,1.678h2.484a.839.839,0,0,0,0-1.678Z" transform="translate(-250.8 -140.8)"/></g><g transform="translate(11.358 20.231)"><path class="a" d="M141.639,250.8a.854.854,0,0,0-.839.839v2.484a.839.839,0,0,0,1.678,0v-2.484A.854.854,0,0,0,141.639,250.8Z" transform="translate(-140.8 -250.8)"/></g><g transform="translate(17.634 17.634)"><path class="a" d="M221.778,220.617,220,218.842A.821.821,0,1,0,218.842,220l1.775,1.775a.821.821,0,0,0,1.162-1.162Z" transform="translate(-218.6 -218.6)"/></g><g transform="translate(11.358)"><path class="a" d="M141.639,0a.854.854,0,0,0-.839.839V3.323a.839.839,0,0,0,1.678,0V.839A.854.854,0,0,0,141.639,0Z" transform="translate(-140.8)"/></g><g transform="translate(17.666 3.34)"><path class="a" d="M222.178,41.642a.818.818,0,0,0-1.162,0l-1.775,1.775a.821.821,0,0,0,1.162,1.162l1.775-1.775A.818.818,0,0,0,222.178,41.642Z" transform="translate(-219 -41.4)"/></g><g transform="translate(0 11.358)"><path class="a" d="M3.323,140.8H.839a.854.854,0,0,0-.839.839.833.833,0,0,0,.839.839H3.323a.839.839,0,0,0,0-1.678Z" transform="translate(0 -140.8)"/></g><g transform="translate(3.307 17.634)"><path class="a" d="M44.178,218.842a.818.818,0,0,0-1.162,0l-1.775,1.775a.821.821,0,0,0,1.162,1.162L44.178,220A.818.818,0,0,0,44.178,218.842Z" transform="translate(-41 -218.6)"/></g><g transform="translate(3.307 3.34)"><path class="a" d="M44.178,43.417,42.4,41.642A.821.821,0,1,0,41.242,42.8l1.775,1.775a.821.821,0,0,0,1.162-1.162Z" transform="translate(-41 -41.4)"/></g></svg>