<svg xmlns="http://www.w3.org/2000/svg" width="10.107" height="9.337" viewBox="0 0 10.107 9.337">
  <path id="emptyStar" d="M7.729,9.337a.735.735,0,0,1-.337-.082L5.2,8.146a.338.338,0,0,0-.3,0L2.717,9.255a.751.751,0,0,1-.893-.17.668.668,0,0,1-.158-.567l.418-2.35A.3.3,0,0,0,1.991,5.9L.22,4.231a.678.678,0,0,1-.183-.717.713.713,0,0,1,.585-.476L3.069,2.7a.317.317,0,0,0,.241-.169L4.4.39a.737.737,0,0,1,1.3,0L6.8,2.528a.319.319,0,0,0,.241.169l2.448.343a.713.713,0,0,1,.585.476.678.678,0,0,1-.184.717L8.118,5.9a.3.3,0,0,0-.092.273l.418,2.35a.668.668,0,0,1-.158.567A.739.739,0,0,1,7.729,9.337ZM5.056,7.483a.253.253,0,0,1,.114.027l1.68.851a.568.568,0,0,0,.686-.13A.51.51,0,0,0,7.657,7.8l-.32-1.8a.229.229,0,0,1,.071-.209L8.765,4.507a.52.52,0,0,0,.141-.55.548.548,0,0,0-.45-.365L6.58,3.329a.247.247,0,0,1-.185-.13l-.839-1.64a.566.566,0,0,0-1,0L3.718,3.2a.245.245,0,0,1-.185.13l-1.878.263a.548.548,0,0,0-.449.365.521.521,0,0,0,.141.55L2.706,5.784a.232.232,0,0,1,.071.209l-.32,1.8a.51.51,0,0,0,.121.434.576.576,0,0,0,.686.13l1.68-.851A.253.253,0,0,1,5.056,7.483Z" transform="translate(-0.001)" fill="#fe0"/>
</svg>
