<svg xmlns="http://www.w3.org/2000/svg" width="22.807" height="20.814" viewBox="0 0 22.807 20.814"><path d="M321.821,259l-.012.021A.027.027,0,0,0,321.821,259Z" transform="translate(-302.015 -244.07)" fill="#fff"/><path d="M317.47,267.155l-.006.011A.034.034,0,0,0,317.47,267.155Z" transform="translate(-297.938 -251.72)" fill="#fff"/><path d="M22.143,35.494a2.87,2.87,0,0,1-1.993-.812,2.766,2.766,0,0,1-.812-1.993,3.309,3.309,0,0,1,.123-.861c.021-.062.042-.124.062-.171l0-.005h0l.01-.021a.025.025,0,0,1,0,.009c.087-.155.174-.326.261-.48a.024.024,0,0,1-.013,0c.025-.025.049-.074.074-.1H19.83a.024.024,0,0,1-.025.025,10.414,10.414,0,1,0-1.817,2.654.087.087,0,0,0-.029.053,4.313,4.313,0,0,0,4.183,3.223A.77.77,0,0,0,22.143,35.494ZM15.5,21.593a1.781,1.781,0,1,1-.64,2.436A1.792,1.792,0,0,1,15.5,21.593Zm-5.068-3.666A1.771,1.771,0,1,1,8.66,19.7,1.764,1.764,0,0,1,10.432,17.927ZM5.363,31.582A1.781,1.781,0,1,1,6,29.146,1.792,1.792,0,0,1,5.363,31.582ZM6,24.029a1.781,1.781,0,1,1-.64-2.436A1.8,1.8,0,0,1,6,24.029Zm4.429,11.219A1.771,1.771,0,1,1,12.2,33.476,1.764,1.764,0,0,1,10.432,35.248Zm0-5.093A3.567,3.567,0,1,1,14,26.587,3.57,3.57,0,0,1,10.432,30.155Zm7.5.787a1.792,1.792,0,0,1-2.436.64,1.781,1.781,0,1,1,2.436-.64Zm1.23,1.3a.225.225,0,0,1,.074-.123C19.215,32.172,19.19,32.2,19.166,32.246Z" transform="translate(0 -16.205)" fill="#fff"/></svg>