<svg xmlns="http://www.w3.org/2000/svg" width="10.438" height="10" viewBox="0 0 10.438 10">
  <g id="halfStar" transform="translate(2055.184 -275.711)">
    <path id="Intersection_14" data-name="Intersection 14" d="M0,8V1.032a.274.274,0,0,0,.224-.011L2.04.07A.6.6,0,0,1,2.32,0a.6.6,0,0,1,.462.216A.585.585,0,0,1,2.913.7L2.566,2.716a.264.264,0,0,0,.077.234L4.112,4.377A.6.6,0,0,1,3.778,5.4l-2.031.294a.265.265,0,0,0-.2.145L.64,7.671A.6.6,0,0,1,.1,8.005.614.614,0,0,1,0,8Z" transform="translate(-2049.955 284.899) rotate(180)" fill="#fe0"/>
    <path id="Exclusion_1" data-name="Exclusion 1" d="M7.981,10a.741.741,0,0,1-.348-.087L5.373,8.724a.337.337,0,0,0-.308,0L2.805,9.913A.743.743,0,0,1,2.46,10a.753.753,0,0,1-.578-.267.732.732,0,0,1-.163-.607L2.15,6.607a.33.33,0,0,0-.1-.292L.226,4.532A.749.749,0,0,1,.642,3.255l2.527-.367a.33.33,0,0,0,.249-.181L4.548.417a.749.749,0,0,1,1.342,0l1.13,2.29a.33.33,0,0,0,.249.181L9.8,3.255a.748.748,0,0,1,.415,1.277L8.382,6.314a.331.331,0,0,0-.1.292l.432,2.517a.732.732,0,0,1-.163.607A.75.75,0,0,1,7.981,10ZM5.221,8.015a.257.257,0,0,1,.118.028l1.734.912a.569.569,0,0,0,.267.067.576.576,0,0,0,.441-.207.562.562,0,0,0,.125-.466L7.575,6.419a.254.254,0,0,1,.073-.225l1.4-1.368a.574.574,0,0,0-.319-.98L6.794,3.565A.253.253,0,0,1,6.6,3.427L5.736,1.67a.574.574,0,0,0-1.03,0L3.839,3.427a.254.254,0,0,1-.191.139l-1.939.282a.574.574,0,0,0-.318.98l1.4,1.367a.255.255,0,0,1,.073.225L2.536,8.35a.561.561,0,0,0,.125.466.577.577,0,0,0,.444.2.57.57,0,0,0,.264-.065L5.1,8.043A.256.256,0,0,1,5.221,8.015Z" transform="translate(-2055.184 275.711)" fill="#fe0"/>
  </g>
</svg>
