<svg xmlns="http://www.w3.org/2000/svg" width="26.161" height="20.819" viewBox="0 0 26.161 20.819"><g transform="translate(0.001 -46.994)"><g transform="translate(-0.001 46.994)"><path d="M75.044,120.939l-9.33,7.692a.22.22,0,0,1-.008.049.222.222,0,0,0-.008.048v7.789a1.054,1.054,0,0,0,1.039,1.039h6.231v-6.231h4.154v6.231h6.231a1.055,1.055,0,0,0,1.039-1.039v-7.789a.228.228,0,0,0-.016-.1Z" transform="translate(-61.964 -116.736)" fill="#fff"/><path d="M25.98,57.136l-3.553-2.953v-6.62a.5.5,0,0,0-.519-.519H18.792a.5.5,0,0,0-.519.519v3.164l-3.959-3.31a2.013,2.013,0,0,0-2.466,0L.18,57.136A.471.471,0,0,0,0,57.484a.525.525,0,0,0,.113.382l1.006,1.2a.553.553,0,0,0,.341.179.6.6,0,0,0,.39-.114L13.08,49.769l11.229,9.363a.5.5,0,0,0,.341.113H24.7a.554.554,0,0,0,.341-.178l1.006-1.2a.525.525,0,0,0,.113-.382A.473.473,0,0,0,25.98,57.136Z" transform="translate(0.001 -46.994)" fill="#fff"/></g></g></svg>