<svg xmlns="http://www.w3.org/2000/svg" width="20.394" height="21.289" viewBox="0 0 20.394 21.289"><defs><style>.a{fill:#ababab;}</style></defs><g transform="translate(-9.212 -0.001)"><path class="a" d="M29.591,14.578a.861.861,0,0,0-.243-.472.829.829,0,0,0-1-.181,7.512,7.512,0,0,1-6.948-.305,7.519,7.519,0,0,1-2.746-2.746,7.372,7.372,0,0,1-1.012-3.786A7.411,7.411,0,0,1,20.1,1.541a.812.812,0,0,0,.208-1A.8.8,0,0,0,19.461,0,10.626,10.626,0,0,0,9.212,10.639a10.363,10.363,0,0,0,.846,4.133,10.523,10.523,0,0,0,5.672,5.672A10.566,10.566,0,0,0,25.6,19.6a10.473,10.473,0,0,0,3.932-4.5A.887.887,0,0,0,29.591,14.578Zm-5.935,4.083a8.73,8.73,0,0,1-3.793.853,8.63,8.63,0,0,1-3.446-.707,8.752,8.752,0,0,1-4.722-4.722,8.628,8.628,0,0,1-.707-3.446,8.854,8.854,0,0,1,6.324-8.5,9.113,9.113,0,0,0-1.442,4.951,9.3,9.3,0,0,0,4.646,8.072,9.144,9.144,0,0,0,4.673,1.248,9.256,9.256,0,0,0,1.526-.125A8.838,8.838,0,0,1,23.656,18.661Z" transform="translate(0 0)"/></g></svg>