<svg xmlns="http://www.w3.org/2000/svg" width="33" height="19.298" viewBox="0 0 33 19.298"><g transform="translate(0 0)"><path d="M17.2,269.25a.49.49,0,0,0,.5.5h6.17a.49.49,0,0,0,.5-.5V267.6H17.2Z" transform="translate(-15.658 -250.454)" fill="#fff"/><path d="M31.458,142h-1.04v.143a7.066,7.066,0,0,1-14.133,0V142H1.471A1.477,1.477,0,0,0,0,143.471v7.138a1.592,1.592,0,0,0,1.578,1.578H31.422A1.592,1.592,0,0,0,33,150.609v-7.138A1.566,1.566,0,0,0,31.458,142ZM10.33,149.927H6.205a.933.933,0,0,1,0-1.865H10.33a.9.9,0,0,1,.933.933A.926.926,0,0,1,10.33,149.927Zm0-3.766H6.205a.933.933,0,0,1,0-1.865H10.33a.926.926,0,0,1,.933.933A.95.95,0,0,1,10.33,146.161Z" transform="translate(0 -136.117)" fill="#fff"/><path d="M270.4,269.25a.49.49,0,0,0,.5.5h6.17a.49.49,0,0,0,.5-.5V267.6H270.4Z" transform="translate(-246.152 -250.454)" fill="#fff"/><path d="M199.226,88.452a6.026,6.026,0,1,0-6.026-6.026A6.016,6.016,0,0,0,199.226,88.452Zm0-8.645a2.618,2.618,0,1,1-2.618,2.618A2.588,2.588,0,0,1,199.226,79.808Z" transform="translate(-175.875 -76.4)" fill="#fff"/></g></svg>