<svg xmlns="http://www.w3.org/2000/svg" width="28.325" height="14.939" viewBox="0 0 28.325 14.939"><path d="M28.325,5.536V2.172A2.4,2.4,0,0,1,25.773,0H2.552A2.4,2.4,0,0,1,0,2.172V5.536A2.136,2.136,0,0,1,2.272,7.47,2.136,2.136,0,0,1,0,9.4v3.364a2.4,2.4,0,0,1,2.552,2.172h23.22a2.4,2.4,0,0,1,2.552-2.172V9.4A2.136,2.136,0,0,1,26.053,7.47,2.116,2.116,0,0,1,28.325,5.536ZM23.1,10.41a2.4,2.4,0,0,1-2.552,2.172H7.782A2.4,2.4,0,0,1,5.229,10.41V4.715A2.4,2.4,0,0,1,7.782,2.543H20.543A2.4,2.4,0,0,1,23.1,4.715Z" fill="#fff"/><g transform="translate(11.546 4.738)"><g transform="translate(0 0)"><path d="M4.545,1.565H3.569L3.278.534a.8.8,0,0,0-.449-.5.68.68,0,0,0-.871.5l-.29,1.031H.745a.609.609,0,0,0-.607.324A.826.826,0,0,0,.3,2.98l.792.619L.771,4.63a.84.84,0,0,0,.106.707.664.664,0,0,0,.976.177l.792-.648.739.589a.614.614,0,0,0,.66.147.806.806,0,0,0,.449-.972L4.176,3.6l.792-.619a.8.8,0,0,0-.422-1.414Z" fill="#fff"/></g></g></svg>