<svg xmlns="http://www.w3.org/2000/svg" width="10.579" height="10.135" viewBox="0 0 10.579 10.135"><defs><style>.a{fill:#fe0;}</style></defs><path class="a" d="M10.348,5.64a.759.759,0,0,0-.421-1.294L7.366,3.974a.335.335,0,0,1-.252-.183L5.969,1.47a.759.759,0,0,0-1.361,0L3.463,3.791a.335.335,0,0,1-.252.183L.649,4.346A.759.759,0,0,0,.229,5.64L2.082,7.447a.335.335,0,0,1,.1.3l-.437,2.551a.743.743,0,0,0,.165.615.767.767,0,0,0,.935.184l2.291-1.2a.343.343,0,0,1,.312,0l2.291,1.2a.751.751,0,0,0,.353.088.761.761,0,0,0,.582-.273.742.742,0,0,0,.165-.615L8.4,7.743a.335.335,0,0,1,.1-.3Z" transform="translate(0.001 -1.047)"/></svg>